PathFileType	3	(X/Y/Z)	F:\ViconData\AntennenMessung\Messung1\Session1\ID10.trc
DataRate	CameraRate	NumFrames	NumMarkers	Units	OrigDataRate	OrigDataStartFrame	OrigNumFrames
120.0	120.0	6	70	mm	120.0	1	1251	
Frame#	Time	Ashort			Along			Atop			A4			Bshort			Blong			Btop			B4			Cshort			Clong			Ctop			C4			Dshort			Dlong			Dtop			D4			Eshort			Elong			Etop			E4			Fshort			Flong			Ftop			F4			Gshort			Glong			Gtop			G4			Hshort			Hlong			Htop			H4			I1			I2			I3			I4			I5			WandAshort			WandAlong			WandAtop			WandA4			WandA15			WandBshort			WandB4			WandB5			WandBtop			WandBlong			WandCshort			WandClong			WandCtop			WandC4			WandC5			Acenter			Aantenna			Bcenter			Bantenna			Ccenter			Cantenna			Dcenter			Dantenna			Ecenter			Eantenna			Fcenter			Fantenna			Gcenter			Gantenna			Hcenter			Hantenna			Icenter			Iantenna			
		X1	Y1	Z1	X2	Y2	Z2	X3	Y3	Z3	X4	Y4	Z4	X5	Y5	Z5	X6	Y6	Z6	X7	Y7	Z7	X8	Y8	Z8	X9	Y9	Z9	X10	Y10	Z10	X11	Y11	Z11	X12	Y12	Z12	X13	Y13	Z13	X14	Y14	Z14	X15	Y15	Z15	X16	Y16	Z16	X17	Y17	Z17	X18	Y18	Z18	X19	Y19	Z19	X20	Y20	Z20	X21	Y21	Z21	X22	Y22	Z22	X23	Y23	Z23	X24	Y24	Z24	X25	Y25	Z25	X26	Y26	Z26	X27	Y27	Z27	X28	Y28	Z28	X29	Y29	Z29	X30	Y30	Z30	X31	Y31	Z31	X32	Y32	Z32	X33	Y33	Z33	X34	Y34	Z34	X35	Y35	Z35	X36	Y36	Z36	X37	Y37	Z37	X38	Y38	Z38	X39	Y39	Z39	X40	Y40	Z40	X41	Y41	Z41	X42	Y42	Z42	X43	Y43	Z43	X44	Y44	Z44	X45	Y45	Z45	X46	Y46	Z46	X47	Y47	Z47	X48	Y48	Z48	X49	Y49	Z49	X50	Y50	Z50	X51	Y51	Z51	X52	Y52	Z52	X53	Y53	Z53	X54	Y54	Z54	X55	Y55	Z55	X56	Y56	Z56	X57	Y57	Z57	X58	Y58	Z58	X59	Y59	Z59	X60	Y60	Z60	X61	Y61	Z61	X62	Y62	Z62	X63	Y63	Z63	X64	Y64	Z64	X65	Y65	Z65	X66	Y66	Z66	X67	Y67	Z67	X68	Y68	Z68	X69	Y69	Z69	X70	Y70	Z70	
1	0	-1038.3286	214.78468	-1644.1058	-1109.3275	203.99718	-1599.418	-1063.7278	172.56615	-1625.5743	-1054.1639	262.15118	-1634.9725	-1352.7939	235.65268	1003.8492	-1281.4436	227.24701	1052.4542	-1322.9247	194.04178	1020.9159	-1284.6428	287.9248	1052.6821	814.00586	187.67426	1209.6539	892.77509	179.52202	1178.6129	844.48486	145.42682	1198.2714	860.53351	292.60074	1167.5049	1115.8319	209.91089	-1401.7444	1056.2156	194.20276	-1460.328	1095.0437	162.32422	-1423.9298	1069.8265	238.64888	-1425.8871	-1204.4867	1685.8936	-1563.3098	-1129.1211	1688.2812	-1606.0656	-1173.1455	1724.4481	-1581.9729	-1134.0164	1581.0121	-1603.8066	-1239.8114	1699.4553	1119.5247	-1309.5015	1699.0363	1071.9884	-1270.6117	1736.6127	1096.9635	-1245.6561	1592.8927	1110.6948	988.88397	1664.2062	1162.2789	955.50842	1701.0917	1182.1656	922.59619	1662.0966	1215.0542	939.68451	1659.4359	1159.9957	999.09924	1668.4877	-1579.4342	1058.9176	1670.208	-1518.6957	1024.9836	1707.986	-1551.1445	1059.2111	1672.1559	-1585.4807	31.579494	196.40099	-944.37054	115.6918	203.98232	-932.38245	72.666977	160.86034	-939.45691	72.648468	200.62746	-971.09741	61.819515	198.18074	-892.32764																																														-1068.9629	210.13013	-1624.8241	-1074.3451	248.74924	-1624.0527	-1321.4005	231.95427	1025.235	-1319.8439	270.67276	1029.6458	847.74231	184.18268	1196.3591	851.00488	222.99875	1194.4441	1088.743	202.77335	-1428.3638	1082.7755	241.08458	-1432.5635	-1171.8672	1686.927	-1581.8151	-1170.5393	1647.95	-1581.6511	-1271.1808	1699.2667	1098.1272	-1271.7748	1660.2902	1099.3418	951.85498	1705.1292	1184.3424	970.73969	1732.9039	1164.52	1026.5353	1669.2766	-1551.5762	1028.097	1630.3103	-1552.0106	69.096992	199.78255	-939.02338	65.535049	238.61714	-938.59082
2	0.0083333333	-1038.3094	214.79639	-1644.104	-1109.3477	203.99483	-1599.4254	-1063.7488	172.57333	-1625.5664	-1054.1814	262.13043	-1634.9467	-1352.9872	235.10336	1003.9341	-1281.4575	227.20515	1052.4877	-1322.9464	194.01804	1020.8809	-1284.7393	287.89194	1052.8035	813.99518	187.70554	1209.6444	892.86792	179.57986	1178.5857	844.50751	145.37804	1198.3105	860.54779	292.6268	1167.4252	1115.8141	209.91116	-1401.7429	1056.215	194.19704	-1460.3018	1095.0499	162.30602	-1423.9103	1069.843	238.66049	-1425.9091	-1204.4889	1685.8998	-1563.3102	-1129.1196	1688.2599	-1606.0374	-1173.142	1724.4384	-1581.9772	-1134.0135	1581.0125	-1603.7968	-1239.8134	1699.4716	1119.5258	-1309.4633	1698.9757	1071.9539	-1270.5262	1736.4843	1096.908	-1245.6969	1592.9607	1110.7195	988.91168	1664.2375	1162.2839	955.85474	1702.1154	1181.0873	922.62433	1662.045	1215.0452	939.74774	1659.4249	1159.9814	999.09796	1668.4854	-1579.4312	1058.927	1670.213	-1518.6948	1024.9862	1707.9867	-1551.1525	1059.2056	1672.2172	-1585.6577	31.592119	196.41158	-944.37482	115.57601	203.89462	-932.35547	72.679985	160.87769	-939.46588	72.636826	200.61365	-971.10034	61.736717	198.75574	-891.86804																																														-1068.9847	210.13213	-1624.811	-1074.3685	248.75093	-1624.0347	-1321.7025	231.64896	1025.1697	-1320.4221	270.37723	1029.5836	847.74036	184.229	1196.3561	850.97046	223.04593	1194.4034	1088.7385	202.77235	-1428.3457	1082.7635	241.08246	-1432.5449	-1171.8683	1686.9211	-1581.8029	-1170.545	1647.944	-1581.6218	-1271.1095	1699.2487	1098.15	-1271.7198	1660.2751	1099.4501	953.33923	1704.9977	1182.5181	972.65399	1732.0079	1162.0636	1026.5354	1669.2776	-1551.5775	1028.0951	1630.3112	-1552.0056	69.149025	199.75792	-938.99982	65.621956	238.59532	-938.5343
3	0.016666667	-1038.257	214.54793	-1644.1418	-1109.3485	203.96069	-1599.4187	-1063.5708	173.25179	-1625.9048	-1054.1755	262.15915	-1634.9663	-1352.8773	235.36859	1003.8887	-1281.4733	227.19391	1052.498	-1322.8887	194.03215	1020.9225	-1284.7716	287.8837	1052.8506	814.0144	187.76279	1209.5842	892.80774	179.47774	1178.614	844.41315	145.49113	1198.3046	860.55377	292.6282	1167.4869	1115.8224	209.91896	-1401.7452	1056.2231	194.18466	-1460.3013	1095.0588	162.3454	-1423.9292	1069.8224	238.65784	-1425.9109	-1204.5973	1686.0021	-1563.0522	-1129.181	1688.4421	-1606.8123	-1173.1309	1724.4402	-1581.9668	-1134.0159	1581.01	-1603.8022	-1239.8018	1699.458	1119.527	-1309.4556	1698.9603	1071.943	-1270.4786	1736.4138	1096.8813	-1245.63	1592.8323	1110.6794	988.83759	1664.1493	1162.2975	955.88147	1702.2739	1181.1426	922.56287	1662.0752	1215.0297	939.7124	1659.4097	1159.9717	999.09723	1668.4904	-1579.4415	1058.9238	1670.1993	-1518.688	1024.9855	1707.9855	-1551.1412	1059.194	1672.2211	-1585.6581	31.570244	196.39174	-944.3623	115.57288	203.89503	-932.3443	72.603607	160.81897	-939.47791	72.644287	200.62921	-971.08905	61.797436	198.47922	-892.06726																																														-1068.5381	210.03835	-1625.0922	-1073.7555	248.67834	-1624.2386	-1321.5088	231.77734	1025.2433	-1320.0931	270.49878	1029.6758	847.71283	184.21941	1196.3389	851.01941	223.02904	1194.369	1088.7369	202.76833	-1428.3566	1082.7458	241.07632	-1432.5524	-1171.9412	1687.0586	-1582.0007	-1170.7007	1648.0784	-1582.0363	-1271.084	1699.2344	1098.1565	-1271.7186	1660.2625	1099.4932	953.55798	1704.9618	1182.4711	973.01434	1731.8828	1162.0332	1026.5352	1669.274	-1551.5784	1028.0951	1630.3077	-1552.0186	69.05854	199.74026	-938.99896	65.521225	238.57657	-938.52106
4	0.025	-1038.2936	214.76674	-1644.1064	-1109.3478	203.96104	-1599.4309	-1063.6548	172.63719	-1625.5702	-1054.1815	262.12482	-1634.9618	-1352.7864	235.64494	1003.7973	-1281.4492	227.1996	1052.4546	-1322.9155	194.06152	1020.8242	-1284.7008	287.90802	1052.7601	814.03864	187.87663	1209.6692	892.80432	179.51657	1178.652	844.47089	145.41133	1198.3352	860.54523	292.5546	1167.4469	1115.8282	209.90976	-1401.7391	1056.2057	194.17737	-1460.3066	1094.9956	162.26309	-1423.8917	1070.017	238.93065	-1425.8229	-1204.6021	1686.0055	-1563.0509	-1129.101	1688.287	-1606.0771	-1173.1345	1724.4323	-1581.9755	-1134.0099	1581.0195	-1603.8228	-1239.7922	1699.4386	1119.5203	-1309.4451	1698.9554	1071.9385	-1270.4642	1736.3888	1096.8755	-1245.6537	1592.9073	1110.6898	988.89117	1664.2201	1162.2714	956.91046	1700.6177	1183.765	922.61188	1662.1088	1215.0615	939.72223	1659.39	1159.9872	999.10101	1668.4938	-1579.4448	1058.9205	1670.2023	-1518.6954	1024.9869	1707.9894	-1551.1456	1059.2087	1672.1599	-1585.481	31.578526	196.42253	-944.40436	115.57487	203.897	-932.33972	72.569962	160.81093	-939.45959	72.63987	200.63309	-971.08533	61.8167	198.50015	-892.05707																																														-1068.9062	210.11125	-1624.8585	-1074.3179	248.72701	-1624.1252	-1321.4139	231.93086	1025.1956	-1319.879	270.64355	1029.6644	847.8219	184.29091	1196.3656	851.16663	223.09746	1194.3998	1088.7137	202.75517	-1428.3737	1082.7704	241.06566	-1432.6141	-1171.8538	1686.995	-1581.7133	-1170.5204	1648.0187	-1581.4403	-1271.0763	1699.2214	1098.1492	-1271.7184	1660.2496	1099.4846	952.72217	1705.3842	1186.5798	972.31946	1733.55	1168.0425	1026.5365	1669.2772	-1551.5828	1028.0963	1630.3109	-1552.0228	69.041725	199.75621	-939.02338	65.523163	238.59473	-938.58832
5	0.033333333	-1038.297	214.77821	-1644.1334	-1109.3485	203.96964	-1599.4357	-1063.7034	172.61484	-1625.5532	-1054.1747	262.15173	-1634.9797	-1352.8458	235.43553	1003.7958	-1281.3945	227.20778	1052.3951	-1322.8735	194.10088	1020.8148	-1284.6279	287.96643	1052.6454	814.0083	187.72592	1209.6046	892.81909	179.53435	1178.6116	844.505	145.45157	1198.2783	860.75507	292.54623	1167.87	1115.7511	209.51678	-1401.5334	1056.199	194.21811	-1460.3192	1095.0344	162.2747	-1423.8881	1069.839	238.65201	-1425.938	-1204.4949	1685.9102	-1563.2944	-1129.1194	1688.2711	-1606.05	-1173.1434	1724.4369	-1581.9702	-1133.5907	1580.9956	-1603.5988	-1239.7926	1699.4399	1119.5212	-1309.4447	1698.9415	1071.9426	-1270.5132	1736.4574	1096.908	-1245.8146	1593.2332	1110.8345	988.84503	1664.1836	1162.3018	956.06396	1702.2964	1181.1547	922.52112	1662.1302	1215.0536	939.7312	1659.3911	1159.9722	999.09979	1668.5149	-1579.4484	1058.9065	1670.2029	-1518.6838	1024.9878	1708.0011	-1551.1453	1059.2168	1672.16	-1585.4669	31.562395	196.42329	-944.39838	115.57272	203.89056	-932.34882	72.675911	161.11679	-939.5816	72.629303	200.62424	-971.10602	61.725777	198.75243	-891.88409																																														-1068.9611	210.11349	-1624.843	-1074.3751	248.72893	-1624.1117	-1321.4696	231.82251	1025.137	-1320.0287	270.54254	1029.5736	847.76746	184.217	1196.3285	851.03406	223.03088	1194.3762	1088.8351	202.60219	-1428.103	1082.9408	240.94536	-1432.1105	-1171.8717	1686.932	-1581.7993	-1170.55	1647.9547	-1581.6218	-1271.0897	1699.2159	1098.1423	-1271.6932	1660.2419	1099.4342	953.70062	1705.0441	1182.5137	973.24097	1731.9384	1162.121	1026.5255	1669.2888	-1551.5833	1028.0732	1630.3221	-1552.0242	69.158104	199.76498	-939.00604	65.623276	238.60014	-938.42761
6	0.041666667	-1038.2903	214.65697	-1644.2274	-1109.3462	203.97324	-1599.4178	-1063.7306	172.61908	-1625.5511	-1054.1841	262.16083	-1634.9814	-1352.8171	235.43335	1003.8066	-1281.4081	227.24454	1052.3715	-1322.9244	194.09874	1020.8483	-1284.6993	287.92075	1052.7609	814.00867	187.66675	1209.5797	892.21814	178.61653	1179.2131	844.49567	145.50319	1198.2905	860.46753	292.70135	1167.3994	1115.8108	209.89896	-1401.7419	1056.2159	194.14397	-1460.297	1095.0105	162.27669	-1423.8678	1069.8223	238.65985	-1425.9034	-1204.4987	1685.9131	-1563.2773	-1129.1315	1688.2781	-1606.0497	-1173.1495	1724.4399	-1581.9597	-1134.0317	1581.038	-1603.8297	-1239.7764	1699.4072	1119.5098	-1309.4657	1699.0026	1071.9613	-1270.4769	1736.4105	1096.8798	-1245.6826	1592.9275	1110.7236	988.92719	1664.2527	1162.3035	956.01068	1702.3961	1181.2037	922.83533	1662.0513	1215.028	939.73065	1659.3829	1159.9594	999.09851	1668.509	-1579.4297	1058.9054	1670.2119	-1518.678	1024.9795	1708.0057	-1551.1353	1059.2208	1672.156	-1585.4609	31.576118	196.39249	-944.36713	115.56651	203.90401	-932.34076	72.620354	160.84756	-939.44043	72.63604	200.63246	-971.11035	61.730789	198.53413	-892.09418																																														-1068.9449	210.04779	-1624.8958	-1074.3254	248.66896	-1624.2194	-1321.4941	231.8414	1025.1091	-1320.0265	270.56778	1029.4811	848.15326	183.71559	1196.3221	851.86444	222.48723	1194.3252	1088.7238	202.73804	-1428.3562	1082.7716	241.04617	-1432.6056	-1171.877	1686.9366	-1581.7906	-1170.5542	1647.9595	-1581.6152	-1271.1133	1699.2252	1098.1288	-1271.7803	1660.2528	1099.438	953.82349	1704.9307	1182.4595	973.27661	1731.8486	1162.0144	1026.524	1669.2898	-1551.5708	1028.0787	1630.3232	-1552.009	69.078064	199.7464	-938.99725	65.541428	238.58319	-938.55487
